<?xml version="1.0" standalone="no"?>
<!DOCTYPE svg PUBLIC "-//W3C//DTD SVG 20010904//EN"
 "http://www.w3.org/TR/2001/REC-SVG-20010904/DTD/svg10.dtd">
<svg version="1.0" xmlns="http://www.w3.org/2000/svg"
 width="1024.000000pt" height="1024.000000pt" viewBox="0 0 1024.000000 1024.000000"
 preserveAspectRatio="xMidYMid meet">

<g transform="translate(0.000000,1024.000000) scale(0.100000,-0.100000)"
fill="#000000" stroke="none">
<path d="M4625 6995 c-60 -24 -417 -166 -792 -315 -375 -149 -692 -279 -703
-288 -24 -19 -30 -73 -11 -95 6 -8 53 -31 104 -52 50 -21 98 -42 105 -48 9 -7
12 -69 12 -248 0 -228 -1 -239 -20 -249 -25 -13 -50 -61 -50 -95 0 -30 24 -81
41 -87 8 -3 0 -54 -29 -173 -23 -93 -41 -170 -39 -171 1 -2 66 -4 142 -4 131
-2 140 -1 137 17 -1 10 -19 85 -39 167 -28 118 -34 152 -24 165 47 65 47 123
0 169 l-29 29 2 220 3 221 130 -52 c72 -29 140 -58 153 -65 l22 -12 0 -287 c0
-321 4 -340 71 -397 105 -89 407 -176 727 -209 l52 -5 0 164 c0 139 3 172 20
217 26 71 67 117 131 153 50 27 64 30 184 35 l130 5 7 47 c9 63 40 113 91 143
83 48 176 42 243 -17 42 -37 61 -72 70 -127 l7 -41 168 0 169 0 2 167 3 166
275 112 c320 130 318 129 330 161 14 36 -4 70 -49 93 -22 12 -384 158 -804
326 -494 197 -776 305 -798 305 -19 -1 -83 -21 -144 -45z"/>
<path d="M5199 5781 l-29 -29 0 -192 c0 -118 4 -199 11 -212 6 -11 26 -26 44
-34 41 -17 59 -18 49 -3 -4 7 0 9 14 5 14 -5 28 0 41 13 20 20 21 33 21 226 0
205 0 206 -25 230 -35 36 -88 34 -126 -4z"/>
<path d="M6483 5800 c-12 -5 -30 -24 -39 -42 -15 -29 -16 -56 -11 -223 6 -179
8 -191 28 -208 31 -25 65 -31 100 -17 51 22 59 52 58 217 0 165 -9 237 -31
259 -18 19 -76 27 -105 14z"/>
<path d="M4854 5580 c-57 -13 -105 -51 -126 -97 -18 -42 -19 -83 -25 -986 -4
-703 -3 -953 6 -984 15 -54 69 -107 124 -122 31 -9 317 -11 1083 -9 l1040 3
36 24 c19 13 46 40 59 59 l24 36 3 953 c2 679 -1 966 -9 996 -14 52 -72 111
-124 126 -22 6 -77 11 -121 11 l-82 0 -3 -128 c-4 -123 -5 -131 -34 -177 -81
-131 -277 -133 -363 -3 -25 39 -27 49 -30 175 l-4 133 -262 0 c-145 0 -331 -3
-414 -7 l-152 -6 0 -112 c0 -104 -2 -117 -28 -166 -66 -127 -223 -159 -328
-66 -63 54 -74 90 -74 232 l0 125 -82 -1 c-46 -1 -97 -4 -114 -9z m2084 -1300
c3 -617 1 -678 -14 -707 -11 -20 -28 -36 -48 -42 -18 -5 -435 -10 -997 -10
-951 -2 -966 -1 -991 18 -14 11 -28 18 -31 15 -3 -3 -6 75 -7 173 0 98 -2 237
-3 308 -1 72 0 309 1 528 l2 397 1043 -2 1042 -3 3 -675z"/>
<path d="M6018 4370 c-136 -137 -249 -250 -251 -250 -2 0 -48 45 -103 100
-105 105 -123 114 -178 89 -30 -14 -60 -72 -52 -102 3 -12 71 -89 150 -170
141 -144 146 -148 183 -145 35 3 60 25 336 304 265 269 297 305 297 334 0 46
-47 90 -97 90 -37 1 -47 -9 -285 -250z"/>
</g>
</svg>
